<?xml version="1.0" standalone="no"?><!DOCTYPE svg PUBLIC "-//W3C//DTD SVG 1.1//EN" "http://www.w3.org/Graphics/SVG/1.1/DTD/svg11.dtd"><svg t="1639923936097" class="icon" viewBox="0 0 1024 1024" version="1.1" xmlns="http://www.w3.org/2000/svg" p-id="14996" xmlns:xlink="http://www.w3.org/1999/xlink" width="200" height="200"><defs><style type="text/css"></style></defs><path d="M73.147733 0h393.659734c27.682133 0 53.009067 15.6672 65.399466 40.448l32.733867 65.399467a73.147733 73.147733 0 0 0 65.399467 40.448h320.512c40.413867 0 73.147733 32.768 73.147733 73.147733v731.409067C1024 991.266133 991.232 1024 950.852267 1024H73.147733A73.147733 73.147733 0 0 1 0 950.852267V73.147733C0 32.733867 32.768 0 73.147733 0z m73.147734 292.5568c-40.413867 0-73.147733 32.768-73.147734 73.147733v512c0 40.413867 32.768 73.147733 73.147734 73.147734h731.409066c40.413867 0 73.147733-32.768 73.147734-73.147734v-512c0-40.379733-32.768-73.147733-73.147734-73.147733H146.295467zM256 512a36.5568 36.5568 0 1 1 0-73.147733A36.5568 36.5568 0 0 1 256 512z m0 146.295467a36.5568 36.5568 0 1 1 0-73.147734 36.5568 36.5568 0 0 1 0 73.147734z m219.4432-219.4432H768a36.5568 36.5568 0 1 1 0 73.147733h-292.5568a36.5568 36.5568 0 0 1 0-73.147733z m0 146.295466H768a36.5568 36.5568 0 0 1 0 73.147734h-292.5568a36.5568 36.5568 0 0 1 0-73.147734zM256 804.522667a36.5568 36.5568 0 1 1 0-73.1136 36.5568 36.5568 0 0 1 0 73.1136z m219.4432-73.1136H768a36.5568 36.5568 0 1 1 0 73.1136h-292.5568a36.5568 36.5568 0 0 1 0-73.1136z" p-id="14997"></path></svg>