<?xml version="1.0" standalone="no"?><!DOCTYPE svg PUBLIC "-//W3C//DTD SVG 1.1//EN" "http://www.w3.org/Graphics/SVG/1.1/DTD/svg11.dtd"><svg t="1639924608375" class="icon" viewBox="0 0 1024 1024" version="1.1" xmlns="http://www.w3.org/2000/svg" p-id="16306" width="128" height="128" xmlns:xlink="http://www.w3.org/1999/xlink"><defs><style type="text/css"></style></defs><path d="M512 208c-132.8 0-240 107.2-240 240s107.2 240 240 240 240-107.2 240-240-107.2-240-240-240z m0 416c-96.8 0-176-79.2-176-176s79.2-176 176-176 176 79.2 176 176-79.2 176-176 176z m384-176c0-212-172-384-384-384S128 236 128 448c0 192.8 142.4 352.8 328 380l-4 68H256v64h512v-64H573.6l-4-68C754.4 800 896 640.8 896 448zM512 768c-176.8 0-320-143.2-320-320s143.2-320 320-320 320 143.2 320 320-143.2 320-320 320z m128-352c0 52.8-43.2 96-96 96s-96-43.2-96-96 43.2-96 96-96 96 43.2 96 96z" p-id="16307" fill="#FF9800"></path></svg>